# xmcd
#
# Track frame offsets:
#	150
#	9512
#	33188
#	51063
#	70729
#	93869
#	115131
#	138204
#
# Disc length: 2124 seconds
#
# Revision: 0
# Processed by: cddbd v1.5.2PL0 Copyright (c) Steve Scherf et al.
# Submitted via: audiograbber 1.83.01
#
DISCID=59084a08
DTITLE=Posthumous Blasphemer - Fracture the Worship
DYEAR=2008
DGENRE=Death Metal
TTITLE0=Revival of Contempt
TTITLE1=Sermons of Enthralment
TTITLE2=Remains Devouring Consciousness
TTITLE3=Flagellation for Rescue
TTITLE4=Doomed Flesh Tortures
TTITLE5=Inconsistent Doctrine of Expiation
TTITLE6=Disfigured Faces of Pontifexes
TTITLE7=Poisonous Compassion
EXTD=
EXTT0=
EXTT1=
EXTT2=
EXTT3=
EXTT4=
EXTT5=
EXTT6=
EXTT7=
PLAYORDER=
